<svg id="Layer_1" data-name="Layer 1" xmlns="http://www.w3.org/2000/svg" xmlns:xlink="http://www.w3.org/1999/xlink" viewBox="0 0 500 500"><defs><style>.cls-1{fill:url(#linear-gradient);}.cls-2{fill:#314561;}.cls-3{fill:#39485e;}</style><linearGradient id="linear-gradient" x1="5.66" y1="380.53" x2="472.17" y2="111.19" gradientUnits="userSpaceOnUse"><stop offset="0.11" stop-color="#bcbec0"/><stop offset="0.92" stop-color="#f26522"/><stop offset="0.98" stop-color="#f26522"/></linearGradient></defs><polygon class="cls-1" points="24.72 65.38 149.54 65.38 203.07 116.58 475.28 116.58 475.28 413.54 24.72 413.54 24.72 65.38"/><path class="cls-2" d="M211.29,96.1,157.76,44.9H4.24V434H495.76V96.1ZM24.72,413.54V65.38H149.54l53.53,51.2H475.28v297Z"/><rect class="cls-2" x="198.8" y="362.34" width="235.52" height="20.48"/><rect class="cls-2" x="301.2" y="311.14" width="133.12" height="20.48"/><path class="cls-3" d="M54.8,274.13q0-10.06,4.51-16a14.68,14.68,0,0,1,12.36-6,13.15,13.15,0,0,1,10.39,4.7v-22H93.61V296H83.22l-.56-4.57a13.54,13.54,0,0,1-11.07,5.37,14.65,14.65,0,0,1-12.2-6Q54.8,284.79,54.8,274.13Zm11.5.86c0,4,.7,7.13,2.11,9.29a6.87,6.87,0,0,0,6.13,3.22,7.69,7.69,0,0,0,7.52-4.5V266a7.57,7.57,0,0,0-7.44-4.51Q66.29,261.47,66.3,275Z"/><path class="cls-3" d="M127.48,296a12.76,12.76,0,0,1-1.16-3.86,13.88,13.88,0,0,1-10.86,4.66A15.29,15.29,0,0,1,105,293.12a11.79,11.79,0,0,1-4.16-9.24q0-6.84,5.08-10.51t14.66-3.7h5.3V267.2a7,7,0,0,0-1.54-4.77c-1-1.2-2.63-1.79-4.83-1.79a6.85,6.85,0,0,0-4.56,1.39,4.73,4.73,0,0,0-1.65,3.82h-11.5a11.53,11.53,0,0,1,2.3-6.92,15.26,15.26,0,0,1,6.53-5,23.74,23.74,0,0,1,9.48-1.81q8,0,12.63,4t4.68,11.24V286q0,6.14,1.71,9.28V296ZM118,288a10,10,0,0,0,4.69-1.13,7.42,7.42,0,0,0,3.19-3.05v-7.4h-4.3q-8.64,0-9.2,6l0,.68a4.61,4.61,0,0,0,1.52,3.54A5.84,5.84,0,0,0,118,288Z"/><path class="cls-3" d="M160,242.33v10.58h7.36v8.44H160v21.5a5.13,5.13,0,0,0,.91,3.42c.62.69,1.78,1,3.51,1a18.83,18.83,0,0,0,3.38-.28v8.71a23.66,23.66,0,0,1-7,1q-12.1,0-12.34-12.22V261.35h-6.29v-8.44h6.29V242.33Z"/><path class="cls-3" d="M198.73,296a12.76,12.76,0,0,1-1.16-3.86,13.88,13.88,0,0,1-10.86,4.66,15.29,15.29,0,0,1-10.49-3.66,11.79,11.79,0,0,1-4.16-9.24q0-6.84,5.08-10.51t14.66-3.7h5.3V267.2a7,7,0,0,0-1.54-4.77c-1-1.2-2.63-1.79-4.83-1.79a6.85,6.85,0,0,0-4.56,1.39,4.73,4.73,0,0,0-1.65,3.82H173a11.53,11.53,0,0,1,2.3-6.92,15.26,15.26,0,0,1,6.53-5,23.74,23.74,0,0,1,9.48-1.81q7.95,0,12.63,4t4.68,11.24V286q0,6.14,1.71,9.28V296Zm-9.51-8a10,10,0,0,0,4.69-1.13,7.42,7.42,0,0,0,3.19-3.05v-7.4h-4.3q-8.64,0-9.2,6l0,.68a4.61,4.61,0,0,0,1.52,3.54A5.84,5.84,0,0,0,189.22,288Z"/><path class="cls-3" d="M240.8,284.08a3.7,3.7,0,0,0-2.09-3.32,23.81,23.81,0,0,0-6.7-2.17q-15.37-3.22-15.37-13.06A11.84,11.84,0,0,1,221.4,256q4.75-3.84,12.44-3.84,8.19,0,13.11,3.86a12.16,12.16,0,0,1,4.92,10H240.36a5.57,5.57,0,0,0-1.59-4.08q-1.59-1.6-5-1.61a6.92,6.92,0,0,0-4.5,1.31,4.16,4.16,0,0,0-1.59,3.35,3.53,3.53,0,0,0,1.81,3.08,18.59,18.59,0,0,0,6.11,2,49.4,49.4,0,0,1,7.24,1.93Q252,275.37,252,283.6a11.25,11.25,0,0,1-5.06,9.54q-5.06,3.63-13.05,3.64a22.76,22.76,0,0,1-9.62-1.93,16.06,16.06,0,0,1-6.58-5.3,12.23,12.23,0,0,1-2.39-7.26h10.9a6.05,6.05,0,0,0,2.27,4.7,9,9,0,0,0,5.66,1.63,8.36,8.36,0,0,0,5-1.25A3.91,3.91,0,0,0,240.8,284.08Z"/><path class="cls-3" d="M279.21,296.78q-9.46,0-15.42-5.81t-6-15.49v-1.11a25.88,25.88,0,0,1,2.51-11.6,18.38,18.38,0,0,1,7.1-7.88,19.9,19.9,0,0,1,10.49-2.77q8.83,0,13.91,5.57t5.08,15.8v4.7H269.5a10.7,10.7,0,0,0,3.36,6.77A10.18,10.18,0,0,0,280,287.5a12.43,12.43,0,0,0,10.39-4.81L296,289a17.29,17.29,0,0,1-7,5.71A23,23,0,0,1,279.21,296.78Zm-1.31-35.39a7.21,7.21,0,0,0-5.55,2.32,12,12,0,0,0-2.73,6.64h16v-.92a8.54,8.54,0,0,0-2.07-5.94A7.42,7.42,0,0,0,277.9,261.39Z"/><path class="cls-3" d="M317.23,242.33v10.58h7.36v8.44h-7.36v21.5a5.13,5.13,0,0,0,.91,3.42c.61.69,1.78,1,3.51,1A18.83,18.83,0,0,0,325,287v8.71a23.73,23.73,0,0,1-7,1q-12.09,0-12.34-12.22V261.35h-6.29v-8.44h6.29V242.33Z"/><path class="cls-3" d="M331.6,290.33a5.77,5.77,0,0,1,1.85-4.46,7.19,7.19,0,0,1,9.31,0,5.81,5.81,0,0,1,1.85,4.46,5.71,5.71,0,0,1-1.83,4.4,6.65,6.65,0,0,1-4.7,1.69,6.57,6.57,0,0,1-4.65-1.69A5.71,5.71,0,0,1,331.6,290.33Z"/><path class="cls-3" d="M378,284.08a3.71,3.71,0,0,0-2.09-3.32,23.9,23.9,0,0,0-6.71-2.17q-15.36-3.22-15.36-13.06A11.83,11.83,0,0,1,358.6,256q4.75-3.84,12.44-3.84,8.2,0,13.12,3.86a12.18,12.18,0,0,1,4.91,10h-11.5a5.57,5.57,0,0,0-1.59-4.08q-1.59-1.6-5-1.61a6.92,6.92,0,0,0-4.5,1.31,4.16,4.16,0,0,0-1.59,3.35,3.53,3.53,0,0,0,1.81,3.08,18.76,18.76,0,0,0,6.11,2,49.56,49.56,0,0,1,7.25,1.93q9.1,3.35,9.11,11.58a11.24,11.24,0,0,1-5.05,9.54q-5.06,3.63-13.06,3.64a22.72,22.72,0,0,1-9.61-1.93,16.09,16.09,0,0,1-6.59-5.3,12.3,12.3,0,0,1-2.39-7.26H363.4a6,6,0,0,0,2.27,4.7,9,9,0,0,0,5.65,1.63,8.4,8.4,0,0,0,5-1.25A3.94,3.94,0,0,0,378,284.08Z"/><path class="cls-3" d="M407.82,257.61a14.36,14.36,0,0,1,11.5-5.49q14,0,14.21,16.28V296H422V268.72q0-3.71-1.59-5.48t-5.3-1.77q-5.06,0-7.32,3.9V296h-11.5V234.84h11.5Z"/></svg>