<svg id="Layer_1" data-name="Layer 1" xmlns="http://www.w3.org/2000/svg" viewBox="0 0 612 249.53"><defs><style>.cls-1{fill:#231f20;}</style></defs><path class="cls-1" d="M68.64,61.51v94.67H50.78l-1-7.91q-7.15,10.08-19.27,10.08-12.63,0-19.2-9.7T4.72,122.12a47.12,47.12,0,0,1,3.45-18.5,29.42,29.42,0,0,1,9.76-12.76,24,24,0,0,1,14.48-4.6,21.8,21.8,0,0,1,16.07,6.38V59.34ZM48.48,135.89V106.68a18,18,0,0,0-4.91-4.34,11.41,11.41,0,0,0-5.68-1.4q-5.61,0-8.93,5.23t-3.32,16.07q0,11.87,2.88,16.59a9.08,9.08,0,0,0,8.22,4.72Q43.76,143.55,48.48,135.89Z"/><path class="cls-1" d="M139.38,142.15a6.57,6.57,0,0,0,3.51,2.68L138.68,158a24.88,24.88,0,0,1-10.2-2.75,14.65,14.65,0,0,1-6.13-7.08q-6.63,10.22-20.41,10.21-10.08,0-16.08-5.87t-6-15.31q0-11.1,8.16-17t23.6-5.87h6.89V111.4q0-6-2.55-8.23T107,100.94a42.12,42.12,0,0,0-8,1,82.09,82.09,0,0,0-9.69,2.62l-4.6-13.27a77.59,77.59,0,0,1,13.08-3.7,66.85,66.85,0,0,1,12.44-1.28q14.55,0,21.31,6t6.76,18v26.28A11.24,11.24,0,0,0,139.38,142.15Zm-20.86-4.73v-12h-5q-6.9,0-10.27,2.43c-2.26,1.61-3.38,4.12-3.38,7.52a8.87,8.87,0,0,0,2.1,6.32,7.59,7.59,0,0,0,5.81,2.23Q114.7,143.93,118.52,137.42Z"/><path class="cls-1" d="M196.86,153a29.38,29.38,0,0,1-8.61,4,35.64,35.64,0,0,1-9.76,1.4q-22.2-.14-22.2-24.5V102.47h-9.57v-14h9.57V73.76l20.15-2.3v17H192l-2.17,14h-13.4V133.6c0,3.15.52,5.4,1.54,6.76a5.65,5.65,0,0,0,4.84,2,14.81,14.81,0,0,0,7.28-2.17Z"/><path class="cls-1" d="M257,142.15a6.57,6.57,0,0,0,3.51,2.68L256.31,158a25,25,0,0,1-10.21-2.75,14.69,14.69,0,0,1-6.12-7.08q-6.63,10.22-20.41,10.21-10.08,0-16.08-5.87t-6-15.31q0-11.1,8.16-17t23.6-5.87h6.89V111.4q0-6-2.55-8.23t-8.93-2.23a42.12,42.12,0,0,0-8,1,81.57,81.57,0,0,0-9.69,2.62l-4.6-13.27a77.59,77.59,0,0,1,13.08-3.7,66.85,66.85,0,0,1,12.44-1.28q14.55,0,21.31,6t6.76,18v26.28A11.24,11.24,0,0,0,257,142.15Zm-20.86-4.73v-12h-5q-6.9,0-10.27,2.43c-2.26,1.61-3.38,4.12-3.38,7.52a8.87,8.87,0,0,0,2.1,6.32,7.59,7.59,0,0,0,5.81,2.23Q232.33,143.93,236.15,137.42Z"/><path class="cls-1" d="M308.23,88.43a35.75,35.75,0,0,1,11.23,6.13l-7.4,11.35a31.13,31.13,0,0,0-16.71-5.23,11.34,11.34,0,0,0-6.06,1.34,4.23,4.23,0,0,0-2.11,3.76,4.89,4.89,0,0,0,1,3.13A10.35,10.35,0,0,0,292,111.4a83.27,83.27,0,0,0,9.06,3.06q10.59,3.06,15.76,8T322,136A18.73,18.73,0,0,1,318.06,148a24.89,24.89,0,0,1-10.85,7.72,41.79,41.79,0,0,1-15.3,2.68A45.89,45.89,0,0,1,276,155.67a36.5,36.5,0,0,1-12.44-7.4l9.83-11q8.54,6.63,18,6.63a13.32,13.32,0,0,0,7.2-1.66,5.26,5.26,0,0,0,2.62-4.72,6.37,6.37,0,0,0-1-3.82,9.16,9.16,0,0,0-4-2.62,90,90,0,0,0-9.31-3q-10.08-2.93-15.05-8.16a18.16,18.16,0,0,1-5-13,17.48,17.48,0,0,1,3.38-10.52A22.85,22.85,0,0,1,280,89a36.32,36.32,0,0,1,14.6-2.75A42.26,42.26,0,0,1,308.23,88.43Z"/><path class="cls-1" d="M391,128.24h-42q1,8.55,4.85,12t10.59,3.45a21.88,21.88,0,0,0,7.91-1.47,41,41,0,0,0,8.29-4.53L389,148.91a41.4,41.4,0,0,1-26.41,9.44q-16.45,0-25.26-9.7t-8.8-26a44.77,44.77,0,0,1,3.7-18.56,29.21,29.21,0,0,1,27.94-17.8q14.67,0,23,9.19t8.3,25.52A60.75,60.75,0,0,1,391,128.24Zm-19.4-13q-.25-15.57-11-15.57a9.53,9.53,0,0,0-8.1,3.83q-2.88,3.83-3.51,12.63h22.58Z"/><path class="cls-1" d="M445.26,153a29.32,29.32,0,0,1-8.62,4,35.53,35.53,0,0,1-9.76,1.4q-22.2-.14-22.19-24.5V102.47h-9.57v-14h9.57V73.76l20.15-2.3v17h15.57l-2.17,14h-13.4V133.6q0,4.72,1.53,6.76a5.67,5.67,0,0,0,4.85,2,14.75,14.75,0,0,0,7.27-2.17Z"/><path class="cls-1" d="M468.54,138.64a11.05,11.05,0,0,1,3.38,8.1,11.23,11.23,0,0,1-3.38,8.23,11.08,11.08,0,0,1-8.1,3.38,11.54,11.54,0,0,1-11.61-11.61,11,11,0,0,1,3.38-8.1,11.16,11.16,0,0,1,8.23-3.38A11,11,0,0,1,468.54,138.64Z"/><path class="cls-1" d="M522.18,88.43a35.75,35.75,0,0,1,11.23,6.13L526,105.91a31.13,31.13,0,0,0-16.71-5.23,11.34,11.34,0,0,0-6.06,1.34,4.23,4.23,0,0,0-2.11,3.76,4.89,4.89,0,0,0,1,3.13A10.27,10.27,0,0,0,506,111.4a83.27,83.27,0,0,0,9.06,3.06q10.59,3.06,15.76,8T536,136A18.79,18.79,0,0,1,532,148a24.89,24.89,0,0,1-10.85,7.72,41.81,41.81,0,0,1-15.31,2.68A45.84,45.84,0,0,1,490,155.67a36.5,36.5,0,0,1-12.44-7.4l9.82-11q8.55,6.63,18,6.63a13.34,13.34,0,0,0,7.21-1.66,5.28,5.28,0,0,0,2.62-4.72,6.37,6.37,0,0,0-1-3.82,9.22,9.22,0,0,0-4-2.62,90.78,90.78,0,0,0-9.31-3q-10.08-2.93-15.06-8.16a18.19,18.19,0,0,1-5-13,17.41,17.41,0,0,1,3.38-10.52,22.79,22.79,0,0,1,9.7-7.4,36.28,36.28,0,0,1,14.6-2.75A42.26,42.26,0,0,1,522.18,88.43Z"/><path class="cls-1" d="M599.75,91.62q5,5.37,5,15.06v49.5H584.57V110.12q0-5.1-1.66-7.08a5.82,5.82,0,0,0-4.72-2q-6.12,0-11.74,8.68v46.44H546.29V61.51l20.16-2V95.71a30.41,30.41,0,0,1,8.93-7.09A23.41,23.41,0,0,1,586,86.26Q594.78,86.26,599.75,91.62Z"/></svg>